<?xml version="1.0" encoding="UTF-8" standalone="no"?>
<!-- Created with Inkscape (http://www.inkscape.org/) -->

<svg
   width="41.81665mm"
   height="41.816658mm"
   viewBox="0 0 41.81665 41.816658"
   version="1.1"
   id="svg5"
   inkscape:version="1.1.2 (b8e25be833, 2022-02-05)"
   sodipodi:docname="favicon.svg"
   inkscape:export-filename="C:\Users\Usuario\Downloads\esc\molleja\favicon.png"
   inkscape:export-xdpi="96"
   inkscape:export-ydpi="96"
   xmlns:inkscape="http://www.inkscape.org/namespaces/inkscape"
   xmlns:sodipodi="http://sodipodi.sourceforge.net/DTD/sodipodi-0.dtd"
   xmlns="http://www.w3.org/2000/svg"
   xmlns:svg="http://www.w3.org/2000/svg">
  <sodipodi:namedview
     id="namedview7"
     pagecolor="#ffffff"
     bordercolor="#666666"
     borderopacity="1.0"
     inkscape:pageshadow="2"
     inkscape:pageopacity="0.0"
     inkscape:pagecheckerboard="0"
     inkscape:document-units="mm"
     showgrid="false"
     inkscape:snap-global="false"
     inkscape:zoom="2"
     inkscape:cx="160.75"
     inkscape:cy="98.5"
     inkscape:window-width="1366"
     inkscape:window-height="745"
     inkscape:window-x="-8"
     inkscape:window-y="-8"
     inkscape:window-maximized="1"
     inkscape:current-layer="layer1" />
  <defs
     id="defs2" />
  <g
     inkscape:label="Capa 1"
     inkscape:groupmode="layer"
     id="layer1"
     transform="translate(-55.154546,-37.687502)">
    <rect
       style="fill:#3e95fb;fill-opacity:1;stroke:#022f63;stroke-width:0.16501;stroke-miterlimit:4;stroke-dasharray:none;stroke-opacity:1"
       id="rect90669"
       width="39.901447"
       height="40.43824"
       x="56.366673"
       y="38.370464"
       ry="4.0740466" />
    <g
       id="g90565"
       transform="translate(-29.41742,-1.0560866)">
      <path
         style="fill:none;stroke:#013e9d;stroke-width:1.565;stroke-linecap:butt;stroke-linejoin:miter;stroke-miterlimit:4;stroke-dasharray:none;stroke-opacity:1"
         d="m 94.042998,56.404818 c 1.907985,-3.618489 5.464487,-3.346585 6.403282,-2.250706 1.14495,1.336541 -0.747403,6.164876 -4.257739,7.263485 -1.687624,0.528166 -4.400583,-0.518011 -4.809673,-2.238383 -0.954014,-4.011971 3.584212,-9.123264 7.666087,-9.710077 3.448225,-0.49572 7.231485,-0.480867 11.127325,-0.632462 -7.32356,8.748876 -4.73604,17.154715 -11.690969,21.311817 -1.182756,0.706958 -3.528164,1.272623 -4.133655,0.03485 -0.608826,-1.244593 2.527757,-4.276462 12.629584,-8.883221 14.72,-7.461882 13.6811,-11.528419 13.30922,-12.659334 -9.04793,-0.717693 -17.19232,25.95789 -2.94266,18.987191"
         id="path34466"
         sodipodi:nodetypes="cssascasccc" />
      <g
         id="g90355"
         transform="translate(29.257129,1.1451497)">
        <rect
           style="fill:none;fill-opacity:1;stroke:#013e9d;stroke-width:0.300068;stroke-miterlimit:4;stroke-dasharray:none;stroke-opacity:1"
           id="rect57331"
           width="0.17319262"
           height="0.53893781"
           x="85.174286"
           y="5.3731413"
           transform="matrix(0.80365345,0.59509758,-0.57062153,0.82121317,0,0)" />
        <rect
           style="fill:none;fill-opacity:1;stroke:#013e9d;stroke-width:0.300068;stroke-miterlimit:4;stroke-dasharray:none;stroke-opacity:1"
           id="rect57674"
           width="0.17319262"
           height="0.53893781"
           x="84.205017"
           y="12.679578"
           transform="matrix(0.85198317,0.52356918,-0.49766989,0.86736652,0,0)" />
        <rect
           style="fill:none;fill-opacity:1;stroke:#013e9d;stroke-width:0.152514;stroke-miterlimit:4;stroke-dasharray:none;stroke-opacity:1"
           id="rect57676"
           width="0.021984939"
           height="0.036829166"
           x="5.5926595"
           y="-81.469856"
           transform="matrix(0.20930626,0.97785014,-0.78655483,-0.61752045,0,0)" />
        <rect
           style="fill:#013e9d;fill-opacity:1;stroke:#013e9d;stroke-width:0.152514;stroke-miterlimit:4;stroke-dasharray:none;stroke-opacity:1"
           id="rect57678"
           width="0.021984939"
           height="0.036829166"
           x="-81.564705"
           y="-130.92386"
           transform="matrix(-0.46421162,0.88572432,-0.21002468,-0.97769609,0,0)" />
      </g>
      <path
         style="fill:none;fill-opacity:1;stroke:#ffffff;stroke-width:1.565;stroke-linecap:butt;stroke-linejoin:miter;stroke-miterlimit:4;stroke-dasharray:none;stroke-opacity:1"
         d="m 93.52335,56.421807 c 1.907985,-3.618489 5.464487,-3.346585 6.403279,-2.250706 1.144961,1.336541 -0.7474,6.164876 -4.257736,7.263485 -1.687624,0.528166 -4.400583,-0.518011 -4.809673,-2.238383 -0.954014,-4.011971 3.584212,-9.123264 7.666087,-9.710077 3.448223,-0.49572 7.231493,-0.480867 11.127333,-0.632462 -7.32356,8.748876 -4.73605,17.154715 -11.690977,21.311817 -1.182756,0.706958 -3.528164,1.272623 -4.133655,0.03485 -0.608826,-1.244593 2.527757,-4.276462 12.629582,-8.883221 14.72,-7.461882 13.68111,-11.528419 13.30922,-12.659334 -9.04792,-0.717693 -17.19232,25.95789 -2.94265,18.987191"
         id="path34464"
         sodipodi:nodetypes="cssascasccc" />
    </g>
  </g>
</svg>
